<svg width="167" height="32" viewBox="0 0 167 32" fill="none" xmlns="http://www.w3.org/2000/svg">
<g><path d="m46.69,19.21c-.54,2.44-2.25,4.23-5.15,4.23-4.06,0-6.04-3.58-5.96-7.21.11-3.71,1.82-7.48,6.26-7.48,2.66,0,4.5,1.73,4.5,3.82,0,1.98-1.08,2.85-2.22,2.85-.81,0-1.68-.46-2.17-1.27v-.05c1.44-.51.87-3.52-.46-3.52-3.6,0-3.85,10.24,1.95,10.24,1.14,0,2.06-.57,3.04-1.71l.22.11Z" style="fill:#fff;"/><path d="m59.61,22.98c-.84.38-1.84.73-2.79.73-1.25,0-2.36-.62-2.74-2.71-.65,1.73-1.68,2.52-3.14,2.52-2.17,0-3.93-2.22-3.93-6.1,0-5.55,3.09-8.62,6.18-8.62,2.38,0,4.66,1.41,4.66,4.01v6.12c0,2.01.6,3.5,1.73,3.98l.03.05ZM49.29,3.9c0-1.08.89-1.95,1.98-1.95s1.95.87,1.95,1.95-.87,2.44-1.95,3.36c-1.08-.89-1.98-2.28-1.98-3.36Zm4.66,9.51c0-1.82-.51-2.76-1.3-2.76-.84,0-1.57,1.57-1.57,5.5,0,3.47.68,3.85,1.6,3.85.65,0,1.27-.73,1.27-1.63v-4.96Zm.19-9.51c0-1.08.87-1.95,1.95-1.95s1.98.87,1.98,1.95-.87,2.44-1.98,3.36c-1.06-.89-1.95-2.28-1.95-3.36Z" style="fill:#fff;"/><path d="m79.04,22.95c-.87.38-1.65.73-2.82.73-1.54,0-2.85-1.19-2.85-3.93v-6.15c0-1.11-.51-1.63-1.11-1.63s-1.11.54-1.11,1.52v6.04c0,2.3.27,3.39.62,3.79h-5.18c.33-.38.57-1.27.62-3.12v-6.61c0-1.11-.49-1.63-1.08-1.63s-1.11.51-1.14,1.46v6.1c0,2.3.3,3.39.62,3.79h-5.15c.3-.38.54-1.27.6-3.12v-6.69c0-2.01-.57-3.52-1.73-4.01v-.05c1-.43,1.98-.76,2.95-.76,1.17,0,2.09.57,2.49,2.33.79-1.52,1.98-2.33,3.33-2.33s2.55.7,2.9,2.14c.81-1.41,1.95-2.14,3.22-2.14,1.71,0,3.03,1.03,3.03,3.14v7.07c0,1.98.6,3.5,1.73,3.98l.03.05Z" style="fill:#fff;"/><path d="m87.6,8.78c2.09,0,4.28,1.9,4.17,6.8,0,5.66-2.55,7.8-4.82,7.8-.95,0-1.87-.38-2.52-1.03v3.9c0,2.3.3,3.39.62,3.79h-5.15c.3-.35.54-1.27.6-3.12v-13.3c0-1.98-.57-3.5-1.73-3.98v-.05c1-.46,1.98-.79,2.95-.79,1.19,0,2.14.65,2.52,2.52.46-1.57,1.87-2.55,3.36-2.55Zm-1.73,12.22c.89,0,1.84-1.27,1.84-4.93,0-2.9-.98-4.06-1.84-4.06-.73,0-1.44.81-1.44,2.09v4.82c0,1.19.7,2.09,1.44,2.09Z" style="fill:#fff;"/><path d="m103.72,19.26c0,2.52-2.49,4.23-5.85,4.23-3.09,0-5.77-1.11-5.77-3.63,0-1.9,1.19-2.79,2.41-2.79.84,0,1.65.41,2.14,1.19v.03c-1.44.52-1.79,3.39,1.3,3.39,1.41,0,2.14-.76,2.14-1.63,0-3.12-6.29-2.98-6.29-7.51,0-2.36,2.17-3.79,4.5-3.79,3.28,0,4.69,1.36,4.69,2.98,0,1.27-.92,1.98-2.01,1.98-.65,0-1.33-.24-1.92-.79v-.03c.95-.38.65-2.36-.35-2.36-.54,0-.98.43-.98,1.3,0,2.82,5.99,3.17,5.99,7.42Z" style="fill:#fff;"/><path d="m112.04,8.78c2.09,0,4.28,1.9,4.17,6.8,0,5.66-2.55,7.8-4.82,7.8-.95,0-1.87-.38-2.52-1.03v3.9c0,2.3.3,3.39.62,3.79h-5.15c.3-.35.54-1.27.6-3.12v-13.3c0-1.98-.57-3.5-1.73-3.98v-.05c1-.46,1.98-.79,2.95-.79,1.19,0,2.14.65,2.52,2.52.46-1.57,1.87-2.55,3.36-2.55Zm-1.73,12.22c.89,0,1.84-1.27,1.84-4.93,0-2.9-.98-4.06-1.84-4.06-.73,0-1.44.81-1.44,2.09v4.82c0,1.19.7,2.09,1.44,2.09Z" style="fill:#fff;"/><path d="m128.78,16.07c0,3.98-1.73,7.48-6.04,7.48s-6.01-3.5-6.01-7.48,1.73-7.4,6.01-7.4,6.04,3.39,6.04,7.4Zm-4.06.05c0-3.82-.87-5.61-1.98-5.61s-1.95,1.79-1.95,5.61.76,5.61,1.95,5.61,1.98-1.82,1.98-5.61Z" style="fill:#fff;"/><path d="m136.85,21.65c-.81,1.17-1.9,2.11-3.74,2.11-2.49,0-3.2-2.25-3.2-4.36v-8.73h-1.44v-1.82h1.44v-1.11c0-2.57,2.17-4.15,4.2-4.15.52,0,1,.08,1.46.3v.05c-1.17.49-1.73,2.01-1.73,4.01v.89h1.73v1.82h-1.73v7.86c0,2.76,1.57,3.17,3.01,3.06v.05Z" style="fill:#fff;"/><path d="m145.03,21.65c-.81,1.17-1.9,2.11-3.74,2.11-2.49,0-3.2-2.25-3.2-4.36v-8.73h-1.44v-1.82h1.44v-1.11c0-2.57,2.17-4.15,4.2-4.15.52,0,1,.08,1.46.3v.05c-1.17.49-1.73,2.01-1.73,4.01v.89h1.73v1.82h-1.73v7.86c0,2.76,1.57,3.17,3.01,3.06v.05Z" style="fill:#fff;"/><path d="m155.28,19.1l.24.11c-.54,2.44-2.28,4.23-5.15,4.23-4.06,0-5.96-3.58-5.96-7.21,0-3.82,2.28-7.48,5.88-7.48,2.84,0,5.23,1.9,5.23,5.45,0,2.52-1.92,4.17-4.23,4.17-.87,0-1.82-.24-2.71-.76.46,1.95,1.57,3.2,3.69,3.2,1.14,0,2.06-.57,3.01-1.71Zm-6.96-3.87l.03.49v.24c.43.16.87.24,1.22.24,1.38,0,2.25-1.11,2.25-3.25,0-1.22-.62-2.38-1.44-2.38-1.92,0-2.06,3.36-2.06,4.66Z" style="fill:#fff;"/><path d="m166.17,12.57c0,1.98-1.14,2.85-2.33,2.85-.84,0-1.73-.46-2.22-1.27v-.05c1.44-.51,1.11-3.52.05-3.52-1.14,0-1.22,2.09-1.22,2.85v6.42c.03,2.09.3,3.09.62,3.47h-5.18c.33-.38.6-1.41.62-3.5v-6.99c0-2.38,2-4.06,4.99-4.06,2.66,0,4.66,1.73,4.66,3.82Z" style="fill:#fff;"/></g><path d="m18.02,30.59v-1.34c2.9-.43,5.49-1.8,7.47-3.77.16-.16.31-.32.46-.48l.94.94.9.9c2.48-2.7,4.04-6.25,4.2-10.16h-1.27c-.14,3.09-1.23,5.93-2.98,8.23l-.95-.95c1.64-2.22,2.61-4.97,2.61-7.95,0-.22,0-.45-.02-.67h2.6c-.16-3.92-1.72-7.47-4.2-10.17l-.91.91c1.97,2.15,3.3,4.89,3.72,7.93h-1.34c-.43-2.9-1.8-5.49-3.77-7.47-.16-.16-.32-.31-.48-.46l.94-.94.57-.57.34-.34C24.16,1.74,20.61.17,16.69,0v1.3c3.09.14,5.93,1.23,8.23,2.98l-.95.95c-2.22-1.64-4.97-2.61-7.95-2.61-.22,0-.44,0-.67.02V0c-.3.01-.6.02-.89.04-.05,0-.11,0-.16.01-1.04.11-2.06.32-3.03.62-.08.03-.17.06-.25.09-.37.12-.74.25-1.1.4-.16.07-.32.14-.48.21-.27.12-.54.25-.8.39-.18.1-.37.19-.55.3-.23.13-.45.27-.67.41-.19.12-.38.24-.57.37-.19.13-.38.28-.56.42-.19.15-.39.29-.57.44h0c-.19.16-.37.33-.55.5l.93.93c2.15-1.97,4.89-3.3,7.93-3.72v1.34c-2.9.43-5.49,1.79-7.47,3.77-.16.16-.31.32-.46.48l-1.51-1.51-.37-.37c-.08.08-.16.17-.23.26-.17.2-.35.39-.51.6-.09.11-.17.23-.25.34-.34.44-.65.9-.94,1.38-.07.12-.14.23-.21.35-.15.26-.28.52-.41.78-.07.14-.13.27-.2.41-.13.27-.25.55-.36.83-.04.11-.08.23-.13.34-.23.63-.43,1.27-.58,1.94,0,.04-.02.08-.03.13-.07.3-.12.61-.17.92-.1.63-.17,1.27-.19,1.93h1.32c.14-3.09,1.23-5.93,2.98-8.23l.95.95c-1.64,2.22-2.61,4.97-2.61,7.95,0,.22,0,.45.02.67H0c0,.11,0,.21.02.31.02.32.04.64.08.96.02.16.05.31.07.46.16,1.04.41,2.04.76,3,.07.2.14.4.22.59.09.23.2.46.3.69.1.22.2.43.31.64.11.21.22.41.33.61.13.23.27.46.41.68.11.17.22.34.33.51.2.28.4.55.61.82.08.1.15.2.23.3.18.21.37.41.56.62l.93-.93c-1.97-2.15-3.3-4.89-3.72-7.93h1.34c.43,2.9,1.8,5.49,3.77,7.47.16.16.32.31.48.46l-.94.94-.57.57-.36.36c.18.16.35.33.54.49.05.04.09.08.14.12,2.61,2.14,5.91,3.45,9.51,3.59v-1.29c-3.09-.14-5.93-1.23-8.23-2.98l.95-.95c2.22,1.64,4.97,2.61,7.95,2.61.22,0,.45,0,.67-.02v2.62c3.92-.17,7.46-1.73,10.16-4.22l-.9-.9c-2.15,1.97-4.89,3.3-7.93,3.72Zm2.9-8.93l-1.93-3.75,2.04,2.28-.1,1.47Zm-16.58-2.66c-.24-.96-.37-1.96-.37-2.99,0-1.91.45-3.72,1.24-5.32l6.12-.26-5.85-.25c.55-.99,1.23-1.9,2.03-2.69.72-.72,1.52-1.34,2.4-1.86l5.94-.25-5.07-.21c1.59-.77,3.37-1.2,5.25-1.2,3.33,0,6.34,1.35,8.52,3.53.27.27.53.55.77.85l-5.78.25,6.18.26c.85,1.15,1.5,2.45,1.9,3.85l-6.14.26,6.28.27c.21.89.32,1.83.32,2.79,0,1.3-.21,2.56-.59,3.73l-4.44-4.44-.39-.39-.39.39-.57.57-5.6-6.45-.42-.48-.42.47-3.97,4.47-.34-.53-.37-.59-.49.49-5.74,5.74Zm7.36-1.98l-1.57.91.28-.4-.22-.92.58-.11-.54-.43.4-.38-.24-.54.31.08-.13-.54-1.91,1.41,1.9-1.9,4.27,6.91-3.13-4.08Zm5.91,4.14l-2.68-4.25.47-.68-.36-1.55.98-.18-.91-.73.67-.63-.41-.91.52.13-.21-.91-2.91,2.44,2.9-3.26,5.58,6.42.39.45.42-.42.6-.6,3.22,3.22-3.34-1.99-.63,1.78-4.22-3.55-.07,5.23Z" style="fill:#fff;"/>
</svg>
