<?xml version="1.0" encoding="utf-8"?>
<!-- Generator: Adobe Illustrator 26.0.1, SVG Export Plug-In . SVG Version: 6.00 Build 0)  -->
<svg version="1.1" id="Layer_1" xmlns="http://www.w3.org/2000/svg" xmlns:xlink="http://www.w3.org/1999/xlink" x="0px" y="0px"
	 viewBox="0 0 500 500" style="enable-background:new 0 0 500 500;" xml:space="preserve">
<style type="text/css">
	.st0{fill:none;}
	.st1{fill:none;stroke:#606264;stroke-miterlimit:10;}
	.st2{fill:url(#New_Pattern_5);}
</style>
<pattern  width="65" height="37.5" patternUnits="userSpaceOnUse" id="New_Pattern_5" viewBox="25.98 -59.61 65 37.5" style="overflow:visible;">
	<g>
		<rect x="25.98" y="-59.61" class="st0" width="65" height="37.5"/>
		<g>
			<polygon class="st1" points="88.28,-45.47 73.15,-45.47 65.58,-32.36 73.15,-19.25 88.28,-19.25 95.85,-32.36 			"/>
			<polyline class="st1" points="73.15,-45.47 80.71,-32.36 95.85,-32.36 			"/>
			<line class="st1" x1="73.15" y1="-19.25" x2="80.71" y2="-32.36"/>
		</g>
		<g>
			<polygon class="st1" points="55.78,-26.72 40.65,-26.72 33.08,-13.61 40.65,-0.5 55.78,-0.5 63.35,-13.61 			"/>
			<polyline class="st1" points="40.65,-26.72 48.21,-13.61 63.35,-13.61 			"/>
		</g>
		<g>
			<polygon class="st1" points="23.28,-45.47 8.15,-45.47 0.58,-32.36 8.15,-19.25 23.28,-19.25 30.85,-32.36 			"/>
			<polyline class="st1" points="8.15,-45.47 15.71,-32.36 30.85,-32.36 			"/>
		</g>
		<g>
			<polygon class="st1" points="88.28,-82.97 73.15,-82.97 65.58,-69.86 73.15,-56.75 88.28,-56.75 95.85,-69.86 			"/>
			<line class="st1" x1="73.15" y1="-56.75" x2="80.71" y2="-69.86"/>
		</g>
		<g>
			<polygon class="st1" points="55.78,-64.22 40.65,-64.22 33.08,-51.11 40.65,-38 55.78,-38 63.35,-51.11 			"/>
			<polyline class="st1" points="40.65,-64.22 48.21,-51.11 63.35,-51.11 			"/>
			<line class="st1" x1="40.65" y1="-38" x2="48.21" y2="-51.11"/>
		</g>
		<g>
			<polygon class="st1" points="23.28,-82.97 8.15,-82.97 0.58,-69.86 8.15,-56.75 23.28,-56.75 30.85,-69.86 			"/>
		</g>
	</g>
</pattern>
<rect width="500" height="500"/>
<rect y="0" class="st2" width="500" height="500"/>
</svg>
