
<svg width="40" height="500" viewBox="0 0 40 500" fill="none" xmlns="http://www.w3.org/2000/svg">
                    <path d="M14.253 1.69965e-07C14.253 1.69965e-07 20.5713 12.8748 21.0121 24.6914C21.4529 36.6843 21.0121 46.9136 18.8081 61.552C15.8693 81.4815 3.96733 119.929 10.4326 140.388C16.8979 160.847 17.1917 161.728 21.306 172.134C26.008 183.774 35.4121 207.407 34.9712 236.684C34.5304 267.901 10.5795 324.515 11.755 347.795C11.902 350.265 12.9305 359.436 14.6938 366.314C16.4571 373.016 20.2774 382.892 21.5999 396.296C22.1876 401.94 23.2162 410.935 22.9223 421.34C22.7754 423.986 22.3346 432.452 20.5713 442.504C18.8081 452.557 16.0162 461.905 15.1346 470.37C13.5183 488.536 15.8693 500 15.8693 500L0 500L5.96244e-06 0L14.253 1.69965e-07ZM16.604 40.0353C15.1346 41.2699 16.0162 43.5626 16.0162 47.619C16.0162 51.6755 14.253 58.3774 14.3999 57.8483C14.5469 57.3192 16.604 52.3809 17.1917 47.2663C17.9264 41.9753 18.0734 38.9771 16.604 40.0353ZM12.6367 72.4868C12.6367 72.4868 12.3428 76.7196 11.3142 82.3633C10.1387 88.007 7.19996 100.529 6.1714 108.995C4.55508 123.457 6.1714 136.861 6.31834 135.626C6.46528 134.215 5.43671 118.695 7.93466 104.586C8.96322 98.7654 11.1673 88.1834 11.902 82.716C12.7836 76.8959 12.6367 72.4868 12.6367 72.4868ZM12.4897 173.369C11.4612 170.37 19.3958 196.825 21.4529 205.996C22.3346 209.7 23.804 216.931 24.3917 223.633C24.9795 230.511 24.9795 239.33 25.1264 239.153C25.4203 239.153 26.3019 228.924 25.1264 219.4C23.9509 209.877 23.5101 210.229 22.7754 205.996C21.5999 199.295 13.5183 176.367 12.4897 173.369ZM10.1387 148.854C10.1387 148.501 9.55097 150.265 11.755 157.319C13.9591 164.374 16.8979 169.136 17.1917 169.489C17.3387 169.841 14.5469 163.316 12.7836 157.848C11.0204 152.557 10.1387 149.03 10.1387 148.854ZM8.81628 0.881836C8.96322 1.0582 10.4326 4.23279 12.4897 9.34741C14.5469 14.4621 16.604 21.5168 16.4571 21.164C16.4571 20.8113 15.5754 14.9912 12.7836 8.11288C9.99179 1.23459 8.66935 0.705475 8.81628 0.881836ZM17.0448 444.797C16.7509 444.621 16.7509 448.148 15.2815 452.734C13.8122 457.319 12.9305 462.257 12.3428 466.49C11.1673 473.545 12.4897 487.125 12.6367 486.42C12.7836 485.891 12.1959 471.958 13.6652 464.374C14.3999 460.494 14.3999 460.141 16.0162 454.321C17.6326 448.501 17.4856 444.974 17.0448 444.797ZM13.5183 371.252C13.3714 370.547 11.1673 365.079 9.69791 356.437C8.08159 347.795 8.96322 340.741 8.5224 340.741C8.08159 340.741 7.19996 342.504 8.08159 351.675C8.96322 360.847 13.6652 371.958 13.5183 371.252ZM9.84485 373.721C9.99178 373.369 7.93465 367.725 7.3469 363.668C6.90609 359.612 6.61221 360.317 6.46527 360.317C6.31833 360.317 6.1714 362.257 6.75915 365.079C7.49384 368.078 9.69791 374.074 9.84485 373.721ZM6.46527 334.921C6.75915 334.744 7.64078 328.748 9.11016 325.044C10.5795 321.34 9.99178 321.869 9.84485 321.693C9.69791 321.517 8.66934 323.104 7.93465 325.926C7.05302 328.748 6.1714 335.097 6.46527 334.921ZM16.3101 384.656C16.7509 384.832 17.0448 384.127 16.0162 381.305C14.9877 378.483 14.106 376.72 14.253 377.425C14.3999 378.131 14.8407 379.012 15.4285 381.834C16.0162 384.832 15.8693 384.48 16.3101 384.656ZM18.2203 439.153C18.2203 439.506 19.3958 435.45 19.5428 433.333C19.6897 431.217 19.6897 429.806 19.2489 429.806C18.8081 429.806 18.5142 429.982 18.6611 432.628C18.8081 435.45 18.2203 438.801 18.2203 439.153ZM31.0039 231.57C31.1509 231.746 30.5631 235.802 30.5631 244.797C30.5631 253.616 27.0366 268.783 25.4203 275.132C23.804 281.481 31.1509 257.496 31.4447 246.032C31.7386 234.568 30.857 231.393 31.0039 231.57Z" fill="#EB662B" />
                    <path d="M26.4489 24.515C26.3019 24.6914 26.8897 32.6279 26.4489 37.2135C25.4203 50.0882 21.7468 67.1958 22.1877 66.4903C22.6285 65.7849 26.7427 42.3281 27.0366 36.508C27.6244 27.866 26.4489 24.3387 26.4489 24.515Z" fill="#EB662B" />
                    <path d="M14.3999 98.9418C14.253 99.2945 12.9306 106.878 12.6367 115.697C12.3428 124.515 13.5183 138.095 13.3714 137.39C13.2244 136.861 10.7265 126.984 11.6081 113.933C12.4897 100.882 14.5469 98.5891 14.3999 98.9418Z" fill="#EB662B" />
                    <path d="M19.6897 139.33C19.5428 139.506 18.2204 135.802 18.0734 133.686C17.9265 131.57 18.0734 130.159 18.5142 130.159C18.955 130.159 19.2489 130.335 19.102 132.981C18.955 135.979 19.8367 139.153 19.6897 139.33Z" fill="#EB662B" />
                    <path d="M15.5754 145.503C15.4284 145.503 17.3386 153.263 18.808 156.614C20.1304 159.965 23.3631 167.549 23.3631 167.372C23.51 167.196 21.0121 159.965 19.5427 156.261C18.0733 152.557 15.7223 145.503 15.5754 145.503Z" fill="#EB662B" />
                    <path d="M39.2323 227.513C39.0854 227.69 39.6731 235.626 39.2323 240.212C38.2037 253.086 34.5303 270.194 34.9711 269.489C35.4119 268.783 39.5262 245.326 39.8201 239.506C40.4078 230.864 39.3792 227.337 39.2323 227.513Z" fill="#EB662B" />
                    <path d="M28.3589 426.102C28.3589 426.102 27.9181 423.986 28.212 420.988C28.5059 417.989 29.5344 410.758 29.2406 406.526C28.6528 399.118 25.2732 393.474 25.4202 394.18C25.4202 394.885 28.6528 401.764 28.212 409.348C28.0651 412.522 27.4773 418.342 27.6242 421.164C27.7712 423.986 28.3589 426.102 28.3589 426.102Z" fill="#EB662B" />
                    <path d="M18.5143 366.843C18.6612 366.49 17.3388 363.316 16.8979 359.259C16.6041 355.203 16.4571 355.556 16.1633 355.556C16.0163 355.556 15.5755 358.73 16.1633 361.552C16.8979 364.374 18.3673 367.196 18.5143 366.843Z" fill="#EB662B" />
                    <path d="M19.3959 472.487C19.249 472.487 19.3959 464.903 20.1306 460.67C20.8653 456.437 22.9224 451.852 23.0694 451.852C23.2163 451.852 21.8939 456.614 21.0122 460.847C20.1306 464.903 19.5429 472.31 19.3959 472.487Z" fill="#EB662B" />
                  </svg>