<svg width="847" height="40" viewBox="0 0 847 40" fill="none" xmlns="http://www.w3.org/2000/svg">
                    <path d="M847 14.253C847 14.253 825.19 20.5713 805.173 21.0121C784.857 21.4529 767.528 21.0121 742.731 18.8081C708.97 15.8693 643.839 3.96732 609.183 10.4326C574.526 16.8979 573.032 17.1917 555.405 21.306C535.686 26.008 495.652 35.412 446.057 34.9712C393.175 34.5304 297.272 10.5795 257.835 11.755C253.652 11.902 238.116 12.9305 226.464 14.6938C215.111 16.4571 198.38 20.2774 175.674 21.5999C166.114 22.1876 150.877 23.2162 133.249 22.9223C128.768 22.7754 114.427 22.3346 97.3975 20.5713C80.3679 18.8081 64.5333 16.0162 50.1926 15.1346C19.4197 13.5183 0 15.8693 0 15.8693L0 0L847 0V14.253ZM779.18 16.604C777.089 15.1346 773.205 16.0162 766.333 16.0162C759.462 16.0162 748.109 14.253 749.005 14.3999C749.901 14.5469 758.267 16.604 766.931 17.1917C775.894 17.9264 780.973 18.0734 779.18 16.604ZM724.207 12.6367C724.207 12.6367 717.037 12.3428 707.477 11.3142C697.916 10.1387 676.704 7.19996 662.363 6.17139C637.864 4.55508 615.158 6.17139 617.249 6.31833C619.64 6.46527 645.931 5.4367 669.832 7.93465C679.691 8.96322 697.617 11.1673 706.879 11.902C716.738 12.7836 724.207 12.6367 724.207 12.6367ZM553.314 12.4897C558.393 11.4612 513.578 19.3958 498.042 21.4529C491.768 22.3346 479.518 23.804 468.165 24.3917C456.514 24.9795 441.575 24.9795 441.874 25.1264C441.874 25.4203 459.202 26.3019 475.336 25.1264C491.469 23.9509 490.872 23.5101 498.042 22.7754C509.395 21.5999 548.235 13.5183 553.314 12.4897ZM594.842 10.1387C595.44 10.1387 592.452 9.55097 580.501 11.755C568.551 13.9591 560.484 16.8979 559.886 17.1917C559.289 17.3387 570.343 14.5469 579.605 12.7836C588.568 11.0203 594.543 10.1387 594.842 10.1387ZM845.506 8.81628C845.207 8.96322 839.83 10.4326 831.165 12.4897C822.501 14.5469 810.551 16.604 811.148 16.4571C811.746 16.4571 821.605 15.5754 833.257 12.7836C844.909 9.99178 845.805 8.66934 845.506 8.81628ZM93.5136 17.0448C93.8123 16.7509 87.837 16.7509 80.0691 15.2815C72.3012 13.8122 63.9358 12.9305 56.7654 12.3428C44.8148 11.1673 21.8099 12.4897 23.0049 12.6367C23.9012 12.7836 47.5037 12.1959 60.3506 13.6652C66.9235 14.3999 67.521 14.3999 77.3802 16.0162C87.2395 17.6326 93.2148 17.4856 93.5136 17.0448ZM218.099 13.5183C219.294 13.3714 228.556 11.1673 243.195 9.69791C257.835 8.08159 269.785 8.96322 269.785 8.5224C269.785 8.08159 266.798 7.19996 251.262 8.08159C235.726 8.96322 216.904 13.6652 218.099 13.5183ZM213.916 9.84484C214.514 9.99178 224.074 7.93465 230.946 7.3469C237.817 6.90608 236.622 6.61221 236.622 6.46527C236.622 6.31833 233.336 6.17139 228.556 6.75915C223.477 7.49384 213.319 9.69791 213.916 9.84484ZM279.644 6.46527C279.943 6.75915 290.101 7.64077 296.375 9.11015C302.649 10.5795 301.753 9.99178 302.052 9.84484C302.351 9.69791 299.662 8.66934 294.881 7.93465C290.101 7.05302 279.346 6.17139 279.644 6.46527ZM195.393 16.3101C195.094 16.7509 196.289 17.0448 201.069 16.0162C205.849 14.9877 208.837 14.106 207.642 14.253C206.447 14.3999 204.953 14.8407 200.173 15.4285C195.094 16.0162 195.691 15.8693 195.393 16.3101ZM103.074 18.2203C102.477 18.2203 109.348 19.3958 112.933 19.5427C116.519 19.6897 118.909 19.6897 118.909 19.2489C118.909 18.8081 118.61 18.5142 114.128 18.6611C109.348 18.8081 103.672 18.2203 103.074 18.2203ZM454.721 31.0039C454.422 31.1508 447.551 30.5631 432.314 30.5631C417.375 30.5631 391.681 27.0366 380.926 25.4203C370.17 23.8039 410.802 31.1508 430.222 31.4447C449.642 31.7386 455.02 30.857 454.721 31.0039Z" fill="#EB662B" />
                    <path d="M805.472 26.4489C805.173 26.3019 791.728 26.8897 783.96 26.4489C762.151 25.4203 733.17 21.7468 734.365 22.1877C735.56 22.6285 775.296 26.7427 785.155 27.0366C799.795 27.6244 805.77 26.4489 805.472 26.4489Z" fill="#EB662B" />
                    <path d="M679.392 14.3999C678.795 14.253 665.948 12.9306 651.01 12.6367C636.071 12.3428 613.066 13.5183 614.262 13.3714C615.158 13.2244 631.889 10.7265 653.997 11.6081C676.106 12.4897 679.99 14.5469 679.392 14.3999Z" fill="#EB662B" />
                    <path d="M610.975 19.6897C610.676 19.5428 616.95 18.2204 620.536 18.0734C624.121 17.9265 626.511 18.0734 626.511 18.5142C626.511 18.955 626.212 19.2489 621.731 19.102C616.652 18.955 611.274 19.8367 610.975 19.6897Z" fill="#EB662B" />
                    <path d="M600.518 15.5754C600.518 15.4284 587.373 17.3386 581.696 18.808C576.02 20.1304 563.173 23.3631 563.471 23.3631C563.77 23.51 576.02 21.0121 582.294 19.5427C588.568 18.0733 600.518 15.7223 600.518 15.5754Z" fill="#EB662B" />
                    <path d="M461.592 39.2323C461.294 39.0854 447.849 39.6731 440.081 39.2323C418.271 38.2037 389.291 34.5303 390.486 34.9711C391.681 35.4119 431.417 39.5262 441.276 39.8201C455.916 40.4078 461.891 39.3792 461.592 39.2323Z" fill="#EB662B" />
                    <path d="M125.183 28.3589C125.183 28.3589 128.768 27.9181 133.847 28.212C138.926 28.5059 151.175 29.5344 158.346 29.2406C170.894 28.6528 180.454 25.2732 179.259 25.4202C178.064 25.4202 166.412 28.6528 153.565 28.212C148.188 28.0651 138.328 27.4773 133.548 27.6242C128.768 27.7712 125.183 28.3589 125.183 28.3589Z" fill="#EB662B" />
                    <path d="M225.568 18.5143C226.165 18.6612 231.543 17.3388 238.415 16.8979C245.286 16.6041 244.689 16.4571 244.689 16.1633C244.689 16.0163 239.311 15.5755 234.531 16.1633C229.751 16.8979 224.97 18.3673 225.568 18.5143Z" fill="#EB662B" />
                    <path d="M46.6074 19.3959C46.6074 19.249 59.4543 19.3959 66.6247 20.1306C73.7951 20.8653 81.563 22.9224 81.563 23.0694C81.563 23.2163 73.4963 21.8939 66.3259 21.0122C59.4543 20.1306 46.9062 19.5429 46.6074 19.3959Z" fill="#EB662B" />
                  </svg>