<?xml version="1.0" encoding="utf-8"?>
<!-- Generator: Adobe Illustrator 26.0.1, SVG Export Plug-In . SVG Version: 6.00 Build 0)  -->
<svg version="1.1" id="Layer_1" xmlns="http://www.w3.org/2000/svg" xmlns:xlink="http://www.w3.org/1999/xlink" x="0px" y="0px"
	 viewBox="0 0 1800 627" style="enable-background:new 0 0 1800 627;" xml:space="preserve">
<style type="text/css">
	.st0{opacity:5.000000e-02;fill:#EB662B;enable-background:new    ;}
	.st1{fill:#F5F5F5;filter:url(#Adobe_OpacityMaskFilter);}
	.st2{mask:url(#mask0_22_683_00000156582146364377398930000009452898413008427162_);}
	.st3{fill:#FFFFFF;}
</style>
<path class="st0" d="M12,0h1776c6.6,0,12,5.4,12,12v603c0,6.6-5.4,12-12,12H12c-6.6,0-12-5.4-12-12V12C0,5.4,5.4,0,12,0z"/>
<defs>
	<filter id="Adobe_OpacityMaskFilter" filterUnits="userSpaceOnUse" x="0" y="-1" width="1800" height="40">
		<feColorMatrix  type="matrix" values="1 0 0 0 0  0 1 0 0 0  0 0 1 0 0  0 0 0 1 0"/>
	</filter>
</defs>
<mask maskUnits="userSpaceOnUse" x="0" y="-1" width="1800" height="40" id="mask0_22_683_00000156582146364377398930000009452898413008427162_">
	<path class="st1" d="M12,0h1776c6.6,0,12,5.4,12,12v603c0,6.6-5.4,12-12,12H12c-6.6,0-12-5.4-12-12V12C0,5.4,5.4,0,12,0z"/>
</mask>
<g class="st2">
	<path class="st3" d="M0,13.3c0,0,46.3,6.3,88.9,6.8c43.2,0.4,80,0,132.7-2.2C293.3,14.9,431.7,3,505.4,9.4
		c73.7,6.5,76.8,6.8,114.3,10.9c41.9,4.7,127,14.1,232.4,13.7c112.4-0.4,316.2-24.4,400-23.2c8.9,0.1,41.9,1.2,66.7,2.9
		c24.1,1.8,59.7,5.6,107.9,6.9c20.3,0.6,52.7,1.6,90.2,1.3c9.5-0.1,40-0.6,76.2-2.4c36.2-1.8,69.8-4.6,100.3-5.4
		c65.4-1.6,106.7,0.7,106.7,0.7V-1H0V13.3z M144.1,15.6c4.4-1.5,12.7-0.6,27.3-0.6c14.6,0,38.7-1.8,36.8-1.6
		c-1.9,0.1-19.7,2.2-38.1,2.8C151.1,16.9,140.3,17.1,144.1,15.6z M261,11.6c0,0,15.2-0.3,35.6-1.3c20.3-1.2,65.4-4.1,95.9-5.1
		c52.1-1.6,100.3,0,95.9,0.1c-5.1,0.1-61-0.9-111.7,1.6c-21,1-59,3.2-78.7,4C276.8,11.8,261,11.6,261,11.6z M624.1,11.5
		c-10.8-1,84.4,6.9,117.5,9c13.3,0.9,39.4,2.4,63.5,2.9c24.8,0.6,56.5,0.6,55.9,0.7c0,0.3-36.8,1.2-71.1,0
		c-34.3-1.2-33-1.6-48.3-2.4C717.5,20.6,634.9,12.5,624.1,11.5z M535.9,9.1c-1.3,0,5.1-0.6,30.5,1.6c25.4,2.2,42.5,5.1,43.8,5.4
		c1.3,0.1-22.2-2.6-41.9-4.4C549.2,10,536.5,9.1,535.9,9.1z M3.2,7.8C3.8,8,15.2,9.4,33.7,11.5c18.4,2.1,43.8,4.1,42.5,4
		c-1.3,0-22.2-0.9-47-3.7C4.4,9,2.5,7.7,3.2,7.8z M1601.3,16c-0.6-0.3,12.1-0.3,28.6-1.8c16.5-1.5,34.3-2.4,49.5-2.9
		c25.4-1.2,74.3,0.1,71.7,0.3c-1.9,0.1-52.1-0.4-79.4,1c-14,0.7-15.2,0.7-36.2,2.4C1614.6,16.6,1601.9,16.5,1601.3,16z M1336.5,12.5
		c-2.5-0.1-22.2-2.4-53.3-3.8c-31.1-1.6-56.5-0.7-56.5-1.2c0-0.4,6.3-1.3,39.4-0.4C1299.1,8,1339.1,12.7,1336.5,12.5z M1345.4,8.8
		c-1.3,0.1-21.6-1.9-36.2-2.5c-14.6-0.4-12.1-0.7-12.1-0.9c0-0.1,7-0.3,17.2,0.3C1325.1,6.5,1346.7,8.7,1345.4,8.8z M1205.7,5.5
		c-0.6,0.3-22.2,1.2-35.5,2.6c-13.3,1.5-11.4,0.9-12.1,0.7c-0.6-0.1,5.1-1.2,15.2-1.9C1183.5,6.1,1206.3,5.2,1205.7,5.5z
		 M1384.8,15.3c0.6,0.4-1.9,0.7-12.1-0.3c-10.2-1-16.5-1.9-14-1.8c2.5,0.1,5.7,0.6,15.9,1.2C1385.4,15,1384.1,14.9,1384.8,15.3z
		 M1580.9,17.2c1.3,0-13.3,1.2-20.9,1.3c-7.6,0.1-12.7,0.1-12.7-0.3s0.6-0.7,10.2-0.6C1567.6,17.8,1579.7,17.2,1580.9,17.2z
		 M833.7,30c0.6,0.1,15.2-0.4,47.6-0.4c31.7,0,86.3-3.5,109.2-5.1c22.9-1.6-63.5,5.7-104.8,6S833,29.9,833.7,30z"/>
	<path class="st3" d="M88.3,25.4c0.6-0.1,29.2,0.4,45.7,0c46.3-1,107.9-4.7,105.4-4.3c-2.5,0.4-87,4.6-107.9,4.8
		C100.3,26.6,87.6,25.4,88.3,25.4z"/>
	<path class="st3" d="M356.2,13.4c1.3-0.1,28.6-1.5,60.3-1.8c31.7-0.3,80.6,0.9,78.1,0.7c-1.9-0.1-37.5-2.6-84.4-1.8
		C363.2,11.5,354.9,13.5,356.2,13.4z"/>
	<path class="st3" d="M501.6,18.7c0.6-0.1-12.7-1.5-20.3-1.6c-7.6-0.1-12.7,0-12.7,0.4s0.6,0.7,10.2,0.6
		C489.5,18,501,18.8,501.6,18.7z"/>
	<path class="st3" d="M523.8,14.6c0-0.1,27.9,1.8,40,3.2c12.1,1.3,39.4,4.6,38.7,4.6c-0.6,0.1-26.7-2.4-40-3.8
		C549.2,17.1,523.8,14.7,523.8,14.6z"/>
	<path class="st3" d="M819,38.2c0.6-0.1,29.2,0.4,45.7,0c46.3-1,107.9-4.7,105.4-4.3c-2.5,0.4-87,4.6-107.9,4.8
		C831.1,39.4,818.4,38.4,819,38.2z"/>
	<path class="st3" d="M1534,27.4c0,0-7.6-0.4-18.4-0.1c-10.8,0.3-36.8,1.3-52.1,1c-26.7-0.6-47-4-44.4-3.8c2.5,0,27.3,3.2,54.6,2.8
		c11.4-0.1,32.4-0.7,42.5-0.6C1526.3,26.8,1534,27.4,1534,27.4z"/>
	<path class="st3" d="M1320.6,17.5c-1.3,0.1-12.7-1.2-27.3-1.6c-14.6-0.3-13.3-0.4-13.3-0.7c0-0.1,11.4-0.6,21.6,0
		C1311.8,15.9,1321.9,17.4,1320.6,17.5z"/>
	<path class="st3" d="M1700.9,18.4c0-0.1-27.3,0-42.5,0.7s-31.7,2.8-31.7,2.9c0,0.1,17.1-1.2,32.4-2.1
		C1673.7,19.1,1700.3,18.5,1700.9,18.4z"/>
</g>
</svg>
