<svg width="60" height="60" viewBox="0 0 60 60" fill="none" xmlns="http://www.w3.org/2000/svg">
<g><path d="m9.43,1.92h28.73c4.14,0,7.51,3.36,7.51,7.51v41.14c0,4.14-3.36,7.51-7.51,7.51H9.43c-4.14,0-7.51-3.36-7.51-7.51V9.43C1.93,5.29,5.29,1.92,9.43,1.92Z" style="fill:#ffcb05;"/><path d="m38.16,3.85c3.08,0,5.58,2.5,5.58,5.58v41.13c0,3.08-2.5,5.58-5.58,5.58H9.43c-3.08,0-5.58-2.5-5.58-5.58V9.43c0-3.08,2.5-5.58,5.58-5.58h28.73m0-3.85H9.43C4.23,0,0,4.23,0,9.43v41.13c0,5.2,4.23,9.43,9.43,9.43h28.73c5.2,0,9.43-4.23,9.43-9.43V9.43c0-5.2-4.23-9.43-9.43-9.43h0Z" style="fill:#42210b;"/></g><path d="m23.84,3.85h-14.41c-3.08,0-5.58,2.5-5.58,5.58v41.13c0,3.08,2.5,5.58,5.58,5.58h14.41V3.85Z" style="fill:#faa61a;"/><g><path d="m10.28,9.32h27.04c1.13,0,2.05.92,2.05,2.05v32.95c0,1.13-.92,2.05-2.05,2.05H10.28c-1.13,0-2.05-.92-2.05-2.05V11.37c0-1.13.92-2.05,2.05-2.05Z" style="fill:#ffcb05;"/><path d="m37.32,48.3H10.28c-2.19,0-3.98-1.79-3.98-3.98V11.37c0-2.19,1.79-3.98,3.98-3.98h27.04c2.19,0,3.98,1.79,3.98,3.98v32.95c0,2.19-1.78,3.98-3.98,3.98ZM10.28,11.24c-.07,0-.13.06-.13.13v32.95c0,.07.06.13.13.13h27.04c.07,0,.13-.06.13-.13V11.37c0-.07-.06-.13-.13-.13H10.28Z" style="fill:#42210b;"/></g><path d="m22.18,50.76c-.89.89-.89,2.34,0,3.22s2.33.89,3.22,0c.89-.89.89-2.34,0-3.22s-2.33-.89-3.22,0Z" style="fill:#42210b;"/>
</svg>