<svg width="60" height="60" viewBox="0 0 60 60" fill="none" xmlns="http://www.w3.org/2000/svg">
<defs><style>.cls-1{fill:#fff;}.cls-2{fill:#ffd3c5;}.cls-3{fill:#eb662b;}</style></defs><g id="_64_Computer_List_Media_Multimedia" data-name="64, Computer, List, Media, Multimedia"><path class="cls-1" d="M55,7.24H7.43a4.06,4.06,0,0,0-4,4V42.44a4.06,4.06,0,0,0,4.05,4.05H55A4.06,4.06,0,0,0,59,42.44V11.29A4.06,4.06,0,0,0,55,7.24Z" transform="translate(-2.77 -1.57)"/><path class="cls-2" d="M55.28,38.9H7.22V11.08H55.28Z" transform="translate(-2.77 -1.57)"/><path class="cls-1" d="M11.57,50.33a3.75,3.75,0,1,1-3.74,3.75A3.75,3.75,0,0,1,11.57,50.33Z" transform="translate(-2.77 -1.57)"/><path class="cls-2" d="M41,54.68a1.62,1.62,0,1,1,0,3.24H21.39a1.62,1.62,0,0,1,0-3.24Z" transform="translate(-2.77 -1.57)"/><path class="cls-2" d="M40.71,46.49v.71a2.46,2.46,0,0,1-2.43,2.42H24.22a2.46,2.46,0,0,1-2.43-2.42v-.71Z" transform="translate(-2.77 -1.57)"/><rect class="cls-1" x="23.97" y="48.05" width="8.9" height="5.06"/><polygon class="cls-1" points="43.6 17.3 40.56 20.33 43.6 23.37 41.07 25.9 38.04 22.86 35 25.9 32.47 23.37 35.51 20.33 32.47 17.3 35 14.77 38.04 17.8 41.07 14.77 43.6 17.3"/><polygon class="cls-1" points="26.81 16.59 20.13 23.27 17.4 26 14.77 23.27 11.63 20.13 14.37 17.5 17.4 20.64 24.18 13.86 26.81 16.59"/><path class="cls-3" d="M56.79,51.55a.91.91,0,0,1,0,1.82.91.91,0,0,1,0-1.82Z" transform="translate(-2.77 -1.57)"/><path class="cls-3" d="M55.58,1.57a.92.92,0,1,1-.91.91A.91.91,0,0,1,55.58,1.57Z" transform="translate(-2.77 -1.57)"/><path class="cls-3" d="M48.6,52.15a.91.91,0,1,1-.91.91A.91.91,0,0,1,48.6,52.15Z" transform="translate(-2.77 -1.57)"/><path class="cls-3" d="M32.11,41.73a1.31,1.31,0,0,1,.4.91,1,1,0,0,1-.4.92,1.29,1.29,0,0,1-.91.4,1.35,1.35,0,0,1-1.32-1.32,1.13,1.13,0,0,1,.41-.91,1.27,1.27,0,0,1,.91-.4A1.29,1.29,0,0,1,32.11,41.73Z" transform="translate(-2.77 -1.57)"/><path class="cls-3" d="M29.58,2.89a.91.91,0,1,1-.91.91A.91.91,0,0,1,29.58,2.89Z" transform="translate(-2.77 -1.57)"/><path class="cls-3" d="M18.25,48.41a.91.91,0,1,1-.91.91A.91.91,0,0,1,18.25,48.41Z" transform="translate(-2.77 -1.57)"/><path class="cls-3" d="M10.06,1.57a.92.92,0,1,1-.91.91A.91.91,0,0,1,10.06,1.57Z" transform="translate(-2.77 -1.57)"/><path class="cls-3" d="M4.29,50.23a.91.91,0,1,1-.91.91A.91.91,0,0,1,4.29,50.23Z" transform="translate(-2.77 -1.57)"/><path class="cls-3" d="M26.75,50.23H24.12A3.15,3.15,0,0,1,21,47.1v-.71a.61.61,0,0,1,1.22,0v.71A1.81,1.81,0,0,0,24,48.92h2.63a.65.65,0,0,1,.6.6C27.25,49.83,27.15,50.23,26.75,50.23Z" transform="translate(-2.77 -1.57)"/><path class="cls-3" d="M38.18,50.23H35.55a.61.61,0,1,1,0-1.21h2.63A1.81,1.81,0,0,0,40,47.2v-.71a.61.61,0,1,1,1.21,0v.71A3,3,0,0,1,38.18,50.23Z" transform="translate(-2.77 -1.57)"/><path class="cls-3" d="M35.65,55.29a.66.66,0,0,1-.61-.61V50.23H27.46v4.45a.61.61,0,1,1-1.22,0V49.62a.65.65,0,0,1,.61-.6h8.9a.65.65,0,0,1,.61.6v5.06A.87.87,0,0,1,35.65,55.29Z" transform="translate(-2.77 -1.57)"/><path class="cls-3" d="M41,58.43H21.39a2.25,2.25,0,0,1-2.23-2.23,2.05,2.05,0,0,1,.61-1.52,2.23,2.23,0,0,1,1.52-.6H40.91a2.25,2.25,0,0,1,2.23,2.22A2.08,2.08,0,0,1,41,58.43ZM21.39,55.29a.91.91,0,0,0-.71.3.94.94,0,0,0-.3.71.9.9,0,0,0,.91.91H40.91a1,1,0,0,0,1-1,.9.9,0,0,0-.91-.91Z" transform="translate(-2.77 -1.57)"/><path class="cls-3" d="M11.57,58.43A4.46,4.46,0,1,1,16,54,4.5,4.5,0,0,1,11.57,58.43Zm0-7.59A3.14,3.14,0,1,0,14.71,54,3.14,3.14,0,0,0,11.57,50.84Z" transform="translate(-2.77 -1.57)"/><path class="cls-3" d="M55.28,39.51H7.22a.65.65,0,0,1-.6-.61V11.08a.65.65,0,0,1,.6-.6H55.28a.65.65,0,0,1,.6.6V38.9A.65.65,0,0,1,55.28,39.51ZM7.83,38.19H54.67V11.69H7.83Z" transform="translate(-2.77 -1.57)"/><path class="cls-3" d="M55,47.1H7.43a4.65,4.65,0,0,1-4.66-4.66V11.29A4.65,4.65,0,0,1,7.43,6.63H55a4.65,4.65,0,0,1,4.66,4.66V42.44A4.65,4.65,0,0,1,55,47.1ZM7.43,7.85A3.41,3.41,0,0,0,4,11.29V42.44a3.41,3.41,0,0,0,3.44,3.44H55a3.41,3.41,0,0,0,3.44-3.44V11.29A3.41,3.41,0,0,0,55,7.85Z" transform="translate(-2.77 -1.57)"/><path class="cls-3" d="M20.17,28.18a.52.52,0,0,1-.4-.2L14,22.21a.76.76,0,0,1,0-.91l2.73-2.73a.78.78,0,0,1,.41-.2.52.52,0,0,1,.4.2l2.73,2.73L26.55,15a.76.76,0,0,1,.91,0l2.73,2.73a.76.76,0,0,1,.2.4.52.52,0,0,1-.2.41L20.78,28A1.42,1.42,0,0,1,20.17,28.18Zm-4.85-6.47,4.95,4.95,8.5-8.5L27,16.34l-6.27,6.28a.76.76,0,0,1-.91,0L17,19.88Z" transform="translate(-2.77 -1.57)"/><path class="cls-3" d="M37.77,28.08a.52.52,0,0,1-.4-.2l-2.53-2.53a.76.76,0,0,1,0-.91l2.63-2.63-2.63-2.43a.76.76,0,0,1,0-.91l2.53-2.53a.76.76,0,0,1,.91,0l2.63,2.63,2.63-2.63a.76.76,0,0,1,.91,0L47,18.47a.76.76,0,0,1,.2.4.78.78,0,0,1-.2.41l-2.63,2.63L47,24.54a.76.76,0,0,1,0,.91L44.45,28a.76.76,0,0,1-.91,0l-2.73-2.63L38.18,28C38.08,28.08,38,28.08,37.77,28.08Zm3-4.25a.52.52,0,0,1,.4.2l2.63,2.63L45.46,25l-2.53-2.63a.76.76,0,0,1,0-.91l2.63-2.63-1.72-1.62-2.63,2.63a.73.73,0,0,1-.91,0l-2.53-2.63-1.61,1.62,2.63,2.63a.76.76,0,0,1,0,.91L36.16,25l1.61,1.62L40.4,24A.42.42,0,0,1,40.81,23.83Z" transform="translate(-2.77 -1.57)"/><path class="cls-3" d="M24.22,33.14h-8.9a.61.61,0,0,1,0-1.22h8.9a.66.66,0,0,1,.61.61A.59.59,0,0,1,24.22,33.14Z" transform="translate(-2.77 -1.57)"/><path class="cls-3" d="M45.16,33.14h-8.9a.61.61,0,1,1,0-1.22h8.9a.61.61,0,0,1,0,1.22Z" transform="translate(-2.77 -1.57)"/></g></svg>