<svg width="60" height="60" viewBox="0 0 60 60" fill="none" xmlns="http://www.w3.org/2000/svg">
<defs><style>.cls-1{fill:#fff;}.cls-2{fill:#ffd3c5;}.cls-3{fill:#eb662b;}</style></defs><g id="_57_Antivirus_Protection_Shield" data-name="57, Antivirus, Protection, Shield"><path class="cls-1" d="M55,48.78a3.94,3.94,0,1,1-3.93,3.94A3.94,3.94,0,0,1,55,48.78Z" transform="translate(-1.95 -2.23)"/><path class="cls-1" d="M7.8,6.16A2.66,2.66,0,1,1,5.14,8.82,2.7,2.7,0,0,1,7.8,6.16Z" transform="translate(-1.95 -2.23)"/><path class="cls-1" d="M51.7,29.12a20.92,20.92,0,0,1-8.51,18.71L31.08,56.65,19,47.83a20.75,20.75,0,0,1-8.51-18.71l.75-12c3.51,0,6.48-3.4,6.69-7H44.26c.21,3.51,3.19,7,6.69,7Z" transform="translate(-1.95 -2.23)"/><path class="cls-2" d="M31.08,18.17A12.65,12.65,0,1,1,18.43,30.71,12.61,12.61,0,0,1,31.08,18.17Z" transform="translate(-1.95 -2.23)"/><polygon class="cls-1" points="34.55 22.53 37.84 25.83 30.4 33.38 27.11 36.67 23.81 33.38 20.52 30.08 23.81 26.79 27.11 30.08 34.55 22.53"/><path class="cls-3" d="M58.71,8.18a1,1,0,1,1,0,1.91,1,1,0,0,1,0-1.91Z" transform="translate(-1.95 -2.23)"/><path class="cls-3" d="M55.31,34.75a1,1,0,1,1-1,1A1,1,0,0,1,55.31,34.75Z" transform="translate(-1.95 -2.23)"/><path class="cls-3" d="M42.77,55.37a1,1,0,1,1-1,1A1,1,0,0,1,42.77,55.37Z" transform="translate(-1.95 -2.23)"/><path class="cls-3" d="M20.13,2.23a1,1,0,0,1,0,1.91,1,1,0,1,1,0-1.91Z" transform="translate(-1.95 -2.23)"/><path class="cls-3" d="M10.14,53.35a1,1,0,1,1-1,1A1,1,0,0,1,10.14,53.35Z" transform="translate(-1.95 -2.23)"/><path class="cls-3" d="M2.91,29.44a1,1,0,1,1-1,1A1,1,0,0,1,2.91,29.44Z" transform="translate(-1.95 -2.23)"/><path class="cls-3" d="M31.08,57.29a.63.63,0,0,1-.43-.11L18.53,48.36a20.88,20.88,0,0,1-6.91-8.5,22.2,22.2,0,0,1-1.8-10.74l.74-12a.69.69,0,0,1,.64-.64c3,0,5.84-3,6.06-6.38a.69.69,0,0,1,.63-.64H44.26a.68.68,0,0,1,.63.64c.22,3.4,3,6.38,6.06,6.38a.69.69,0,0,1,.64.64l.75,12a21.78,21.78,0,0,1-1.81,10.74,21.56,21.56,0,0,1-6.91,8.5L31.5,57.18A.62.62,0,0,1,31.08,57.29ZM11.84,17.75l-.75,11.48h0A20.08,20.08,0,0,0,19.28,47.3l11.8,8.5,11.79-8.5a20.08,20.08,0,0,0,8.19-18.07h0l-.64-11.48c-3.29-.32-6.16-3.3-6.69-7H18.53C18,14.45,15.13,17.43,11.84,17.75Z" transform="translate(-1.95 -2.23)"/><path class="cls-3" d="M31.08,44A13.29,13.29,0,1,1,44.36,30.71,13.29,13.29,0,0,1,31.08,44Zm0-25.19a12,12,0,1,0,12,12A12,12,0,0,0,31.08,18.81Z" transform="translate(-1.95 -2.23)"/><path class="cls-3" d="M55,57.29a4.68,4.68,0,1,1,4.68-4.68A4.72,4.72,0,0,1,55,57.29Zm0-8a3.3,3.3,0,1,0,3.3,3.29A3.31,3.31,0,0,0,55,49.32Z" transform="translate(-1.95 -2.23)"/><path class="cls-3" d="M7.8,12.11a3.3,3.3,0,1,1,3.29-3.29A3.24,3.24,0,0,1,7.8,12.11Zm0-5.31a2,2,0,1,0,2,2A2,2,0,0,0,7.8,6.8Z" transform="translate(-1.95 -2.23)"/><path class="cls-3" d="M29.06,39.54a.55.55,0,0,1-.43-.22L22,32.73a.79.79,0,0,1,0-.95l3.3-3.3a.73.73,0,0,1,.42-.21.79.79,0,0,1,.43.21l2.87,2.87,7-7a.81.81,0,0,1,.43-.22h0a.53.53,0,0,1,.42.22l3.3,3.29a.81.81,0,0,1,0,1L29.48,39.32A.82.82,0,0,1,29.06,39.54Zm-5.64-7.23,5.64,5.63,9.88-9.88L36.6,25.72l-7,7a.81.81,0,0,1-.43.22.78.78,0,0,1-.42-.22l-2.87-2.87Z" transform="translate(-1.95 -2.23)"/></g>
</svg>