<svg width="60" height="60" viewBox="0 0 60 60" fill="none" xmlns="http://www.w3.org/2000/svg">
<g><path d="m43.85,55.76c-.89,0-1.76-.22-2.57-.64l-8.96-4.71c-.73-.39-1.56-.59-2.39-.59s-1.66.2-2.39.59l-8.97,4.71c-.81.43-1.67.64-2.57.64-1.63,0-3.17-.72-4.23-1.98-1.04-1.24-1.48-2.87-1.21-4.48l1.71-9.98c.29-1.67-.27-3.37-1.48-4.55l-7.25-7.06c-1.52-1.48-2.05-3.65-1.39-5.66.66-2.01,2.36-3.45,4.46-3.75l10.02-1.46c1.67-.24,3.12-1.29,3.87-2.81l4.48-9.08c.93-1.9,2.83-3.08,4.95-3.08s4.01,1.18,4.95,3.08l4.48,9.08c.75,1.52,2.19,2.57,3.87,2.81l10.02,1.46c2.09.3,3.8,1.74,4.45,3.75.66,2.01.12,4.18-1.39,5.66l-7.25,7.07c-1.21,1.18-1.76,2.88-1.48,4.55l1.71,9.98c.27,1.61-.16,3.24-1.21,4.48-1.06,1.26-2.6,1.98-4.23,1.98h0Z" style="fill:#ffcb05;"/><path d="m29.93,3.75c1.3,0,2.6.68,3.26,2.03l4.48,9.08c1.02,2.07,3,3.51,5.28,3.84l10.02,1.46c2.98.43,4.18,4.1,2.02,6.21l-7.25,7.06c-1.65,1.61-2.41,3.94-2.02,6.21l1.71,9.98c.4,2.35-1.47,4.26-3.59,4.26-.56,0-1.14-.13-1.69-.43l-8.96-4.71c-1.02-.54-2.14-.8-3.26-.8s-2.25.27-3.26.8l-8.96,4.71c-.56.29-1.13.43-1.69.43-2.12,0-3.99-1.91-3.59-4.26l1.71-9.98c.39-2.27-.37-4.6-2.02-6.21l-7.25-7.06c-2.16-2.11-.97-5.78,2.02-6.21l10.02-1.46c2.28-.33,4.26-1.77,5.28-3.84l4.48-9.08c.67-1.35,1.96-2.03,3.26-2.03m0-3.75c-2.84,0-5.38,1.58-6.63,4.13l-4.48,9.08c-.48.96-1.39,1.63-2.46,1.79l-10.02,1.46c-2.8.41-5.09,2.33-5.97,5.03-.88,2.7-.16,5.6,1.86,7.59l7.25,7.07c.77.75,1.12,1.83.94,2.89l-1.71,9.98c-.37,2.16.22,4.34,1.62,6,1.42,1.68,3.48,2.65,5.67,2.65,1.18,0,2.38-.3,3.44-.86l8.96-4.71c.46-.24.99-.37,1.52-.37s1.05.13,1.52.37l8.96,4.71c1.08.57,2.24.86,3.44.86,2.18,0,4.25-.97,5.67-2.65,1.4-1.66,1.99-3.85,1.62-6l-1.71-9.98c-.18-1.06.17-2.14.94-2.88l7.25-7.07c2.03-1.98,2.75-4.89,1.87-7.59-.88-2.7-3.16-4.62-5.97-5.03l-10.02-1.46c-1.06-.15-1.98-.82-2.45-1.78l-4.48-9.08c-1.25-2.54-3.8-4.12-6.63-4.12h0Z" style="fill:#42210b;"/></g><path d="m29.95,3.76c-1.3,0-2.61.67-3.28,2.03l-4.48,9.08c-1.02,2.07-3,3.51-5.28,3.84l-10.02,1.46c-2.99.43-4.18,4.1-2.02,6.21l7.25,7.06c1.65,1.61,2.41,3.94,2.02,6.21l-1.71,9.98c-.51,2.97,2.61,5.24,5.28,3.84l8.96-4.71c1.03-.54,2.16-.81,3.28-.8V3.76Z" style="fill:#faa61a;"/><path d="m34.4,24.81c-.65,0-1.29-.34-1.64-.95-2.65-4.69-4.81-9.36-4.9-9.56-.43-.94-.02-2.06.92-2.49.94-.43,2.06-.02,2.49.92.02.05,2.19,4.74,4.76,9.28.51.9.19,2.05-.71,2.56-.29.16-.61.24-.92.24Z" style="fill:#fff;"/>
</svg>