<svg width="60" height="60" viewBox="0 0 60 60" fill="none" xmlns="http://www.w3.org/2000/svg">
<g><g><path d="m6.52,1.54h22.03c2.75,0,4.98,2.23,4.98,4.98v34.02c0,2.75-2.23,4.98-4.98,4.98H6.52c-2.75,0-4.98-2.23-4.98-4.98V6.52C1.54,3.77,3.77,1.54,6.52,1.54Z" style="fill:#faa61a;"/><path d="m28.55,3.08c1.9,0,3.44,1.54,3.44,3.44v34.03c0,1.9-1.54,3.44-3.44,3.44H6.52c-1.9,0-3.44-1.54-3.44-3.44V6.52c0-1.9,1.54-3.44,3.44-3.44h22.03m0-3.08H6.52C2.93,0,0,2.92,0,6.52v34.03c0,3.6,2.93,6.52,6.52,6.52h22.03c3.6,0,6.52-2.93,6.52-6.52V6.52c0-3.59-2.93-6.52-6.52-6.52h0Z" style="fill:#42210b;"/></g><path d="m24.67,9.43h-13.94c-.85,0-1.54-.69-1.54-1.54s.69-1.54,1.54-1.54h13.94c.85,0,1.54.69,1.54,1.54s-.69,1.54-1.54,1.54Z" style="fill:#42210b;"/><path d="m8.17,36.82c-.85,0-1.54-.69-1.54-1.54V14.77c0-.85.69-1.54,1.54-1.54s1.54.69,1.54,1.54v20.51c0,.85-.69,1.54-1.54,1.54Z" style="fill:#fff;"/><g><g><path d="m20.35,58.46c-2.75,0-4.98-2.23-4.98-4.98V19.45c0-2.75,2.23-4.98,4.98-4.98h15.7c.41,0,.8.16,1.09.45l9.78,9.78c.29.29.45.68.45,1.09v27.69c0,2.75-2.23,4.98-4.98,4.98h-22.03Z" style="fill:#ffcb05;"/><path d="m36.04,16.01l9.78,9.78v27.69c0,1.9-1.54,3.44-3.44,3.44h-22.03c-1.9,0-3.44-1.54-3.44-3.44V19.45c0-1.9,1.54-3.44,3.44-3.44h15.7m0-3.08h-15.7c-3.6,0-6.52,2.92-6.52,6.52v34.03c0,3.6,2.93,6.52,6.52,6.52h22.03c3.6,0,6.52-2.93,6.52-6.52v-27.69c0-.82-.32-1.6-.9-2.18l-9.78-9.78c-.58-.58-1.36-.9-2.18-.9h0Z" style="fill:#42210b;"/></g><path d="m37.22,17.19l7.2,7.2h-3.79c-1.89,0-3.41-1.53-3.41-3.41v-3.79m0-3.08c-.4,0-.8.08-1.18.23-1.15.48-1.9,1.6-1.9,2.84v3.79c0,3.58,2.91,6.49,6.49,6.49h3.79c1.24,0,2.37-.75,2.84-1.9.48-1.15.21-2.47-.67-3.35l-7.2-7.2c-.59-.59-1.38-.9-2.18-.9h0Z" style="fill:#42210b;"/><path d="m39.22,32.48h-15.72c-.85,0-1.54-.69-1.54-1.54s.69-1.54,1.54-1.54h15.72c.85,0,1.54.69,1.54,1.54s-.69,1.54-1.54,1.54Z" style="fill:#42210b;"/><path d="m39.22,38.28h-15.72c-.85,0-1.54-.69-1.54-1.54s.69-1.54,1.54-1.54h15.72c.85,0,1.54.69,1.54,1.54s-.69,1.54-1.54,1.54Z" style="fill:#42210b;"/><path d="m39.22,44.08h-15.72c-.85,0-1.54-.69-1.54-1.54s.69-1.54,1.54-1.54h15.72c.85,0,1.54.69,1.54,1.54s-.69,1.54-1.54,1.54Z" style="fill:#42210b;"/><path d="m39.22,49.88h-15.72c-.85,0-1.54-.69-1.54-1.54s.69-1.54,1.54-1.54h15.72c.85,0,1.54.69,1.54,1.54s-.69,1.54-1.54,1.54Z" style="fill:#42210b;"/></g></g><path d="m29.75,21.56h-6.2c-.85,0-1.54-.69-1.54-1.54s.69-1.54,1.54-1.54h6.2c.85,0,1.54.69,1.54,1.54s-.69,1.54-1.54,1.54Z" style="fill:#fff;"/>
</svg>
