<svg width="60" height="60" viewBox="0 0 60 60" fill="none" xmlns="http://www.w3.org/2000/svg">
<defs><style>.cls-1{fill:#ffd3c5;}.cls-2{fill:#fff;}.cls-3{fill:#eb662b;}</style></defs><g id="_73_Audience_Customer_Target" data-name="73, Audience, Customer, Target"><path class="cls-1" d="M55.11,1.42a2.81,2.81,0,0,1,2.83,2.84,2.84,2.84,0,0,1-5.67,0A2.81,2.81,0,0,1,55.11,1.42Z" transform="translate(-0.51 -0.74)"/><path class="cls-1" d="M6.87,49a3.52,3.52,0,1,1-3.52,3.51A3.46,3.46,0,0,1,6.87,49Z" transform="translate(-0.51 -0.74)"/><path class="cls-2" d="M40.46,35.81h0a11.8,11.8,0,0,1-9.53,5,11.4,11.4,0,0,1-9.54-5h0a11.83,11.83,0,0,1,9.54-5A11.65,11.65,0,0,1,40.46,35.81Z" transform="translate(-0.51 -0.74)"/><path class="cls-2" d="M30.93,21.85a4.54,4.54,0,1,1-4.54,4.54A4.62,4.62,0,0,1,30.93,21.85Z" transform="translate(-0.51 -0.74)"/><path class="cls-1" d="M26.5,26.39A4.55,4.55,0,0,0,31,30.93a11.37,11.37,0,0,0-9.53,5h0a11.7,11.7,0,1,1,21.22-6.81,11.85,11.85,0,0,1-2.15,6.81h0a11.83,11.83,0,0,0-9.54-5,4.54,4.54,0,1,0,0-9.08A4.48,4.48,0,0,0,26.5,26.39Z" transform="translate(-0.51 -0.74)"/><path class="cls-2" d="M30.93,46.93v5.23a23.06,23.06,0,0,1-23-23h5.22A17.77,17.77,0,0,0,30.93,46.93Z" transform="translate(-0.51 -0.74)"/><path class="cls-2" d="M48.86,29.11h5.22a23.06,23.06,0,0,1-23,23V46.93A17.85,17.85,0,0,0,48.86,29.11Z" transform="translate(-0.51 -0.74)"/><path class="cls-2" d="M54,29.11H48.75A17.78,17.78,0,0,0,30.93,11.29V6.07A23.06,23.06,0,0,1,54,29.11Z" transform="translate(-0.51 -0.74)"/><path class="cls-2" d="M30.93,6.07v5.22A17.78,17.78,0,0,0,13.11,29.11H7.89A23.06,23.06,0,0,1,30.93,6.07Z" transform="translate(-0.51 -0.74)"/><path class="cls-3" d="M59,14.24a1,1,0,1,1-1,1A1,1,0,0,1,59,14.24Z" transform="translate(-0.51 -0.74)"/><path class="cls-3" d="M56.47,41.94a1,1,0,1,1-1,1A1,1,0,0,1,56.47,41.94Z" transform="translate(-0.51 -0.74)"/><path class="cls-3" d="M43.41.74a1,1,0,1,1,0,2,1,1,0,0,1,0-2Z" transform="translate(-0.51 -0.74)"/><path class="cls-3" d="M43.41,56.13a1,1,0,1,1-1,1A1,1,0,0,1,43.41,56.13Z" transform="translate(-0.51 -0.74)"/><path class="cls-3" d="M16.4,54a1,1,0,1,1-1,1A1,1,0,0,1,16.4,54Z" transform="translate(-0.51 -0.74)"/><path class="cls-3" d="M12.2.74a1,1,0,1,1-1,1A1,1,0,0,1,12.2.74Z" transform="translate(-0.51 -0.74)"/><path class="cls-3" d="M1.53,14.93a1,1,0,1,1-1,1A1,1,0,0,1,1.53,14.93Z" transform="translate(-0.51 -0.74)"/><path class="cls-3" d="M40.46,36.6a.61.61,0,0,1-.56-.34,11,11,0,0,0-17.94,0,.72.72,0,0,1-1,.12.71.71,0,0,1-.11-1,12.45,12.45,0,0,1,10.1-5.22A12.3,12.3,0,0,1,41,35.36a.85.85,0,0,1-.11,1A.62.62,0,0,1,40.46,36.6Z" transform="translate(-0.51 -0.74)"/><path class="cls-3" d="M30.93,31.61a5.22,5.22,0,1,1,5.22-5.22A5.2,5.2,0,0,1,30.93,31.61Zm0-9a3.75,3.75,0,1,0,3.74,3.75A3.63,3.63,0,0,0,30.93,22.64Z" transform="translate(-0.51 -0.74)"/><path class="cls-3" d="M30.93,41.49a12.31,12.31,0,0,1-10.1-5.23h0A12.37,12.37,0,1,1,43.3,29.11,12.37,12.37,0,0,1,30.93,41.49Zm-9-6a11,11,0,0,0,17.94,0,10.65,10.65,0,0,0,2-6.36,11,11,0,0,0-22,0,11.73,11.73,0,0,0,2,6.36Z" transform="translate(-0.51 -0.74)"/><path class="cls-3" d="M30.93,47.61A18.61,18.61,0,1,1,49.54,29,18.62,18.62,0,0,1,30.93,47.61Zm0-35.64A17.14,17.14,0,1,0,48.07,29.11,17.2,17.2,0,0,0,30.93,12Z" transform="translate(-0.51 -0.74)"/><path class="cls-3" d="M30.93,52.84A23.73,23.73,0,1,1,54.65,29.11,23.79,23.79,0,0,1,30.93,52.84Zm0-46.09A22.36,22.36,0,1,0,53.29,29.11,22.33,22.33,0,0,0,30.93,6.75Z" transform="translate(-0.51 -0.74)"/><path class="cls-3" d="M30.93,12a.73.73,0,0,1-.68-.68V2.21a.68.68,0,1,1,1.36,0v9.08C31.72,11.63,31.38,12,30.93,12Z" transform="translate(-0.51 -0.74)"/><path class="cls-3" d="M30.93,56.81a.73.73,0,0,1-.68-.68V47.05a.68.68,0,1,1,1.36,0v9.08C31.72,56.47,31.38,56.81,30.93,56.81Z" transform="translate(-0.51 -0.74)"/><path class="cls-3" d="M57.94,29.79H48.86a.68.68,0,0,1,0-1.36h9.08a.68.68,0,0,1,0,1.36Z" transform="translate(-0.51 -0.74)"/><path class="cls-3" d="M13.11,29.79H4a.68.68,0,0,1,0-1.36h9.08a.68.68,0,0,1,0,1.36Z" transform="translate(-0.51 -0.74)"/><path class="cls-3" d="M55.11,7.77a3.52,3.52,0,1,1,3.51-3.51A3.53,3.53,0,0,1,55.11,7.77Zm0-5.67a2.16,2.16,0,1,0,2.15,2.16A2.16,2.16,0,0,0,55.11,2.1Z" transform="translate(-0.51 -0.74)"/><path class="cls-3" d="M6.87,56.81a4.32,4.32,0,1,1,4.31-4.32A4.46,4.46,0,0,1,6.87,56.81Zm0-7.15A2.84,2.84,0,1,0,9.7,52.49,2.81,2.81,0,0,0,6.87,49.66Z" transform="translate(-0.51 -0.74)"/></g></svg>
