<svg width="60" height="60" viewBox="0 0 60 60" fill="none" xmlns="http://www.w3.org/2000/svg">
<g><path d="m34.05,23.44l4.78,4.77h0s3.34,3.34,3.34,3.34l1.95,1.94h0s12.03,12.07,12.03,12.07c2.6,2.6,2.6,6.82,0,9.42-2.6,2.6-6.81,2.6-9.41,0l-11.04-11.08-11.08-11.04c-2.6-2.6-2.6-6.82,0-9.42,2.6-2.6,6.82-2.6,9.42,0Z" style="fill:#faa61a;"/><path d="m51.47,58.81c-2.28,0-4.42-.89-6.03-2.5l-11.04-11.08-11.08-11.04c-3.33-3.33-3.33-8.74,0-12.07,3.33-3.33,8.74-3.33,12.07,0l4.64,4.63c.05.04.11.09.16.14l5.29,5.29s.08.09.12.13l11.92,11.94c1.61,1.61,2.5,3.75,2.5,6.03s-.89,4.42-2.5,6.03c-1.61,1.61-3.75,2.5-6.03,2.5ZM29.35,23.37c-1.22,0-2.45.47-3.38,1.4-1.86,1.86-1.86,4.9,0,6.76l11.08,11.04,11.05,11.08c.9.9,2.1,1.4,3.38,1.4s2.48-.5,3.38-1.4c.9-.9,1.4-2.1,1.4-3.38s-.5-2.48-1.4-3.38l-12.04-12.06s-.08-.08-.11-.12l-5.03-5.03c-.05-.04-.1-.09-.15-.13l-4.78-4.77s0,0,0,0c-.93-.93-2.16-1.4-3.38-1.4Z" style="fill:#42210b;"/></g><g><path d="m45.45,23.66c0,12.03-9.76,21.79-21.79,21.79S1.88,35.7,1.88,23.66,11.63,1.88,23.66,1.88s21.79,9.75,21.79,21.79Z" style="fill:#ffcb05;"/><path d="m23.66,47.33C10.62,47.33,0,36.71,0,23.66S10.62,0,23.66,0s23.67,10.62,23.67,23.66-10.62,23.67-23.67,23.67Zm0-43.58C12.69,3.75,3.75,12.69,3.75,23.66s8.93,19.91,19.91,19.91,19.91-8.93,19.91-19.91S34.64,3.75,23.66,3.75Z" style="fill:#42210b;"/></g><path d="m23.91,1.89v43.55c11.92-.13,21.54-9.83,21.54-21.78S35.83,2.02,23.91,1.89Z" style="fill:#faa61a;"/><path d="m23.66,47.33C10.62,47.33,0,36.71,0,23.66S10.62,0,23.66,0s23.67,10.62,23.67,23.66-10.62,23.67-23.67,23.67Zm0-43.58C12.69,3.75,3.75,12.69,3.75,23.66s8.93,19.91,19.91,19.91,19.91-8.93,19.91-19.91S34.64,3.75,23.66,3.75Z" style="fill:#42210b;"/><g><path d="m38.08,23.66c0,7.96-6.45,14.41-14.41,14.41s-14.41-6.45-14.41-14.41,6.45-14.41,14.41-14.41,14.41,6.45,14.41,14.41Z" style="fill:#ffcb05;"/><path d="m23.66,39.96c-8.98,0-16.29-7.31-16.29-16.29S14.68,7.38,23.66,7.38s16.29,7.31,16.29,16.29-7.31,16.29-16.29,16.29Zm0-28.83c-6.91,0-12.54,5.62-12.54,12.54s5.62,12.54,12.54,12.54,12.54-5.62,12.54-12.54-5.62-12.54-12.54-12.54Z" style="fill:#42210b;"/></g><path d="m30.73,25.54c-1.04,0-1.88-.84-1.88-1.88,0-2.86-2.33-5.19-5.19-5.19-1.04,0-1.88-.84-1.88-1.88s.84-1.88,1.88-1.88c4.93,0,8.95,4.01,8.95,8.95,0,1.04-.84,1.88-1.88,1.88Z" style="fill:#fff;"/>
</svg>

