<svg width="60" height="60" viewBox="0 0 60 60" fill="none" xmlns="http://www.w3.org/2000/svg">
<defs><style>.cls-1{fill:#fff;}.cls-2{fill:#64ddf9;}.cls-3{fill:#7e68c6;}</style></defs><g id="_62_Map_Site_Site_Map_Page" data-name="62, Map, Site, Site Map, Page"><path class="cls-1" d="M58.32,51.32h0c-.1,3.64-2.63,6.57-6.27,6.57H7.85a6.25,6.25,0,0,1-6.28-6.57h0a3.9,3.9,0,0,1,3.85-3.75,4,4,0,0,1,3.74,4V13.59H50.84V51.52a4,4,0,0,1,3.74-4A3.87,3.87,0,0,1,58.32,51.32Z" transform="translate(-0.87 -0.94)"/><polygon class="cls-2" points="33.48 18.41 33.48 24.08 29.03 24.08 24.58 24.08 24.58 18.41 33.48 18.41"/><path class="cls-2" d="M58.32,51.11v.21h0a3.89,3.89,0,0,0-3.84-3.75,4,4,0,0,0-3.74,4V12.47a4,4,0,0,1,1.11-2.83,3.67,3.67,0,0,1,2.63-1.11,4,4,0,0,1,3.84,4V51.11Z" transform="translate(-0.87 -0.94)"/><path class="cls-3" d="M53.57,2.36a.91.91,0,1,1-.91.91A.91.91,0,0,1,53.57,2.36Z" transform="translate(-0.87 -0.94)"/><path class="cls-1" d="M44.47,1.65a3.14,3.14,0,1,1-3.14,3.13A3.09,3.09,0,0,1,44.47,1.65Z" transform="translate(-0.87 -0.94)"/><polygon class="cls-2" points="44.81 40.56 44.81 44.91 37.23 44.91 37.23 40.56 41.07 40.56 44.81 40.56"/><polygon class="cls-2" points="44.81 31.66 44.81 36.11 41.07 36.11 37.23 36.11 37.23 31.66 41.07 31.66 44.81 31.66"/><path class="cls-3" d="M37.18,8a.91.91,0,1,1-.91.91A.91.91,0,0,1,37.18,8Z" transform="translate(-0.87 -0.94)"/><polygon class="cls-2" points="32.88 40.56 32.88 44.91 25.29 44.91 25.29 40.56 29.03 40.56 32.88 40.56"/><polygon class="cls-2" points="32.88 31.66 32.88 36.11 29.03 36.11 25.29 36.11 25.29 31.66 29.03 31.66 32.88 31.66"/><path class="cls-3" d="M25.14,2.36a.91.91,0,1,1,0,1.82.91.91,0,0,1,0-1.82Z" transform="translate(-0.87 -0.94)"/><polygon class="cls-2" points="20.84 40.56 20.84 44.91 13.25 44.91 13.25 40.56 17 40.56 20.84 40.56"/><polygon class="cls-2" points="20.84 31.66 20.84 36.11 17 36.11 13.25 36.11 13.25 31.66 17 31.66 20.84 31.66"/><path class="cls-1" d="M15.33,4.78A2.53,2.53,0,1,1,12.8,7.31,2.51,2.51,0,0,1,15.33,4.78Z" transform="translate(-0.87 -0.94)"/><path class="cls-2" d="M9.06,44v7.59a4,4,0,0,0-3.74-3.94,4,4,0,0,0-3.85,3.74h0V12.78a4,4,0,0,1,3.85-4A3.5,3.5,0,0,1,8,9.84a3.8,3.8,0,0,1,1.11,2.83V44Z" transform="translate(-0.87 -0.94)"/><path class="cls-3" d="M8.05,3.57a.91.91,0,1,1-.91.91A.91.91,0,0,1,8.05,3.57Z" transform="translate(-0.87 -0.94)"/><path class="cls-3" d="M1.47,51.92a.65.65,0,0,1-.6-.6V12.57A4.6,4.6,0,0,1,5.32,7.92,4.43,4.43,0,0,1,8.45,9.24a4.65,4.65,0,0,1,1.32,3.23v1.22a.61.61,0,0,1-1.22,0V12.47a3.17,3.17,0,0,0-.91-2.32,3.1,3.1,0,0,0-2.22-.91,3.29,3.29,0,0,0-3.14,3.43V51.42A1,1,0,0,1,1.47,51.92Z" transform="translate(-0.87 -0.94)"/><path class="cls-3" d="M52.05,58.5H7.75a6.44,6.44,0,0,1-5-2.12A7.47,7.47,0,0,1,.87,51.32v-.1A4.51,4.51,0,0,1,5.32,47a4.24,4.24,0,0,1,3.13,1.51V13.69a.66.66,0,0,1,.61-.61H50.74a.61.61,0,0,1,0,1.21H9.67V51.62a.66.66,0,0,1-.61.61.66.66,0,0,1-.61-.61,3.4,3.4,0,0,0-3.13-3.34,3.22,3.22,0,0,0-3.14,3.14c.1,3.44,2.43,5.87,5.67,5.87h44.3a5.71,5.71,0,0,0,5.67-5.87,3.3,3.3,0,0,0-3.14-3.14,3.4,3.4,0,0,0-3.13,3.34.61.61,0,1,1-1.22,0V16.22a.61.61,0,0,1,1.22,0V48.48A4.24,4.24,0,0,1,54.68,47a4.59,4.59,0,0,1,4.45,4.25v.1a6.91,6.91,0,0,1-7.08,7.18Z" transform="translate(-0.87 -0.94)"/><path class="cls-3" d="M58.32,51.92a.65.65,0,0,1-.6-.6V12.57a3.3,3.3,0,0,0-3.14-3.44,3.14,3.14,0,0,0-2.22.91,3.21,3.21,0,0,0-.91,2.33v3.74a.61.61,0,0,1-1.22,0V12.37a4.7,4.7,0,0,1,1.32-3.24,4.42,4.42,0,0,1,3.13-1.31,4.6,4.6,0,0,1,4.45,4.65V51.22A.76.76,0,0,1,58.32,51.92Z" transform="translate(-0.87 -0.94)"/><path class="cls-3" d="M44.47,8.63a3.85,3.85,0,1,1,3.84-3.85A3.91,3.91,0,0,1,44.47,8.63Zm0-6.37a2.5,2.5,0,0,0-2.53,2.52,2.53,2.53,0,1,0,5.05,0A2.5,2.5,0,0,0,44.47,2.26Z" transform="translate(-0.87 -0.94)"/><path class="cls-3" d="M15.33,10.45a3.14,3.14,0,1,1,3.14-3.14A3.15,3.15,0,0,1,15.33,10.45Zm0-5.06a1.93,1.93,0,1,0,1.92,1.92A1.86,1.86,0,0,0,15.33,5.39Z" transform="translate(-0.87 -0.94)"/><path class="cls-3" d="M21.71,46.56H14.12a.65.65,0,0,1-.61-.6V41.51a.65.65,0,0,1,.61-.61h7.59a.65.65,0,0,1,.6.61V46A.65.65,0,0,1,21.71,46.56Zm-7-1.31H21.1V42.11H14.73Z" transform="translate(-0.87 -0.94)"/><path class="cls-3" d="M21.71,37.66H14.12a.65.65,0,0,1-.61-.61V32.6a.65.65,0,0,1,.61-.6h7.59a.65.65,0,0,1,.6.6v4.45A.65.65,0,0,1,21.71,37.66Zm-7-1.21H21.1V33.31H14.73Z" transform="translate(-0.87 -0.94)"/><path class="cls-3" d="M33.74,46.56H26.16a.65.65,0,0,1-.61-.6V41.51a.65.65,0,0,1,.61-.61h7.58a.65.65,0,0,1,.61.61V46A.65.65,0,0,1,33.74,46.56Zm-7-1.31h6.38V42.11H26.76Z" transform="translate(-0.87 -0.94)"/><path class="cls-3" d="M33.74,37.66H26.16a.65.65,0,0,1-.61-.61V32.6a.65.65,0,0,1,.61-.6h7.58a.65.65,0,0,1,.61.6v4.45A.65.65,0,0,1,33.74,37.66Zm-7-1.21h6.38V33.31H26.76Z" transform="translate(-0.87 -0.94)"/><path class="cls-3" d="M34.35,25.62h-8.9a.65.65,0,0,1-.61-.6V19.35a.66.66,0,0,1,.61-.61h8.9a.66.66,0,0,1,.61.61V25A.58.58,0,0,1,34.35,25.62Zm-8.19-1.21h7.58V20H26.16Z" transform="translate(-0.87 -0.94)"/><path class="cls-3" d="M45.68,46.56H38.09a.65.65,0,0,1-.6-.6V41.51a.65.65,0,0,1,.6-.61h7.59a.66.66,0,0,1,.61.61V46C46.39,46.26,46.08,46.56,45.68,46.56ZM38.8,45.25h6.37V42.11H38.8Z" transform="translate(-0.87 -0.94)"/><path class="cls-3" d="M45.68,37.66H38.09a.65.65,0,0,1-.6-.61V32.6a.65.65,0,0,1,.6-.6h7.59a.65.65,0,0,1,.61.6v4.45C46.39,37.36,46.08,37.66,45.68,37.66ZM38.8,36.45h6.37V33.31H38.8Z" transform="translate(-0.87 -0.94)"/><path class="cls-3" d="M41.94,42.11a.65.65,0,0,1-.61-.6V37.05a.61.61,0,0,1,1.21,0v4.46A.65.65,0,0,1,41.94,42.11Z" transform="translate(-0.87 -0.94)"/><path class="cls-3" d="M29.9,42.11a.65.65,0,0,1-.61-.6V37.05a.61.61,0,0,1,1.22,0v4.46A.65.65,0,0,1,29.9,42.11Z" transform="translate(-0.87 -0.94)"/><path class="cls-3" d="M29.9,33.21a.66.66,0,0,1-.61-.61V25a.61.61,0,1,1,1.22,0V32.6A.59.59,0,0,1,29.9,33.21Z" transform="translate(-0.87 -0.94)"/><path class="cls-3" d="M17.86,42.11a.65.65,0,0,1-.61-.6V37.05a.61.61,0,0,1,1.22,0v4.46C18.57,41.81,18.27,42.11,17.86,42.11Z" transform="translate(-0.87 -0.94)"/><path class="cls-3" d="M41.94,33.21a.65.65,0,0,1-.61-.61V29.47H18.57V32.6a.65.65,0,0,1-.61.61.67.67,0,0,1-.71-.61V28.76a.66.66,0,0,1,.61-.61H41.94a.65.65,0,0,1,.6.61V32.6A.58.58,0,0,1,41.94,33.21Z" transform="translate(-0.87 -0.94)"/></g></svg>

